<svg xmlns="http://www.w3.org/2000/svg" viewBox="0 0 120 48" role="img" aria-label="Visa">
  <rect width="120" height="48" rx="8" fill="#fff"/>
  <path fill="#1434CB" d="M45.8 33.1h-7.3l4.6-28.2h7.3l-4.6 28.2Zm26.7-27.5a18 18 0 0 0-6.5-1.2c-7.2 0-12.2 3.8-12.2 9.3 0 4 3.6 6.3 6.4 7.6 2.8 1.4 3.8 2.3 3.8 3.5 0 1.9-2.3 2.8-4.4 2.8-3 0-4.5-.4-7-1.5l-1-.5-1 6.4c1.7.8 4.8 1.4 8.1 1.5 7.6 0 12.5-3.8 12.6-9.6 0-3.2-1.9-5.6-6.1-7.6-2.5-1.3-4.1-2.2-4.1-3.5 0-1.2 1.3-2.4 4.2-2.4a12 12 0 0 1 5.6 1.1l.7.3.9-6.2Zm18.8-.7h-5.6c-1.7 0-3 .5-3.8 2.3L71.1 33.1h7.6l1.5-4.2h9.3l.9 4.2h6.7L91.3 4.9Zm-9 18.2 2.9-8 .9-2.5.5 2.3 1.7 8.2h-6Zm-50-18.2-7.1 19.2-.8-3.9c-1.3-4.5-5.4-9.4-10-11.8l6.5 24.7h7.7L40 4.9h-7.7Z"/>
  <path fill="#F7B600" d="M18.7 4.9H7.1L7 5.5c9 2.3 15 7.8 17.4 14.5L21.8 7.2c-.5-1.8-1.8-2.2-3.1-2.3Z"/>
</svg>
